# xmcd
#
# Track frame offsets:
#	150
#	20042
#	46237
#	66822
#	83312
#	99852
#	122652
#	133840
#	149152
#	166005
#	179630
#	196090
#	212570
#	232192
#	253182
#	270710
#	301207
#	318960
#
# Disc length: 4468 seconds
#
# Revision: 3
# Processed by: cddbd v1.5.1PL2 Copyright (c) Steve Scherf et al.
# Submitted via: EasyCDDAExtractor 9.0.0.1
#
DISCID=fd117212
DTITLE=Lightnin' Hopkins - The Complete Prestige/Bluesville Recordings - Disc 
DTITLE=5
DYEAR=1991
DGENRE=Blues
TTITLE0=Baby, Please Don't Go [#]
TTITLE1=My Black Cadillac [#]
TTITLE2=It's Crazy [#]
TTITLE3=Mojo Hand [#]
TTITLE4=My Babe [#]
TTITLE5=Short Haired Woman [#]
TTITLE6=Mean Old Frisco [#]
TTITLE7=Trouble In Mind [#]
TTITLE8=The Twister [#]
TTITLE9=Green Onion [#]
TTITLE10=Sun Goin' Down [#]
TTITLE11=Come Go Home With Me [#]
TTITLE12=I'm A Stranger [#]
TTITLE13=I Got Tired
TTITLE14=I Like To Boogie
TTITLE15=I Asked The Bossman
TTITLE16=I'm Taking A Devil Of A Chance
TTITLE17=Just A Wristwatch On My Arm
EXTD=
EXTT0=
EXTT1=
EXTT2=
EXTT3=
EXTT4=
EXTT5=
EXTT6=
EXTT7=
EXTT8=
EXTT9=
EXTT10=
EXTT11=
EXTT12=
EXTT13=
EXTT14=
EXTT15=
EXTT16=
EXTT17=
PLAYORDER=
